<svg xmlns="http://www.w3.org/2000/svg" viewBox="-60 -20 120 60">
  <!--
    Station 06, the Wall (experience, tools, ribbons). Floor at y=40, aisle |x| < 8 below y=18.
    Tools on the pegboard, punched cards on the cork, three rosettes; a doorway at the back opens on
    the window room.
  -->

  <!-- a plain arch, bunting hung along its header -->
  <path id="arch" data-z="0" data-stock="brickDeep" data-cut="knife" data-cast="false"
    d="M-60 -20 H60 V40 H28 V9 L24.6 9 L22.8 12.2 L21 9 L17.4 9 L15.6 12.2 L13.8 9 L10.2 9 L8.4 12.2 L6.6 9 L3 9 L1.2 12.2 L-0.6 9 L-4.2 9 L-6 12.2 L-7.8 9 L-11.4 9 L-13.2 12.2 L-15 9 L-18.6 9 L-20.4 12.2 L-22.2 9 L-25.8 9 L-27.6 12.2 L-28 11.6 V40 H-60 Z" />

  <!-- far: the back wall with its doorway through to the window room, a clock above -->
  <path id="far-wall" data-z="-42" data-stock="brickLight" data-cut="knife"
    d="M-38 0 H38 V40 H8.6 V17 C8.6 13.4 5.2 11.8 0 11.8 C-5.2 11.8 -8.6 13.4 -8.6 17 V40 H-38 Z"
    data-holes="M0 4.2 m-2.2 0 a2.2 2.2 0 1 0 4.4 0 a2.2 2.2 0 1 0 -4.4 0 Z" />
  <path id="far-clock-hands" data-z="-42.4" data-stock="cream" data-cut="knife"
    d="M-0.25 2.6 H0.25 V4.4 H-0.25 Z M0 4.1 L1.3 4.6 L1.1 5 L-0.1 4.5 Z" />

  <!-- middle A (left): the pegboard, holes on a grid, and the tools that live on it -->
  <path id="pegboard" data-z="-20" data-stock="kraft" data-cut="knife"
    d="M-28 12.4 H-10.4 V33.4 H-28 Z"
    data-holes="M-26.35 14 a0.35 0.35 0 1 0 0.7 0 a0.35 0.35 0 1 0 -0.7 0 Z M-22.35 14 a0.35 0.35 0 1 0 0.7 0 a0.35 0.35 0 1 0 -0.7 0 Z M-18.35 14 a0.35 0.35 0 1 0 0.7 0 a0.35 0.35 0 1 0 -0.7 0 Z M-14.35 14 a0.35 0.35 0 1 0 0.7 0 a0.35 0.35 0 1 0 -0.7 0 Z M-12.35 14 a0.35 0.35 0 1 0 0.7 0 a0.35 0.35 0 1 0 -0.7 0 Z M-26.35 31.8 a0.35 0.35 0 1 0 0.7 0 a0.35 0.35 0 1 0 -0.7 0 Z M-22.35 31.8 a0.35 0.35 0 1 0 0.7 0 a0.35 0.35 0 1 0 -0.7 0 Z M-18.35 31.8 a0.35 0.35 0 1 0 0.7 0 a0.35 0.35 0 1 0 -0.7 0 Z M-14.35 31.8 a0.35 0.35 0 1 0 0.7 0 a0.35 0.35 0 1 0 -0.7 0 Z M-12.35 31.8 a0.35 0.35 0 1 0 0.7 0 a0.35 0.35 0 1 0 -0.7 0 Z M-26.35 23 a0.35 0.35 0 1 0 0.7 0 a0.35 0.35 0 1 0 -0.7 0 Z M-12.35 23 a0.35 0.35 0 1 0 0.7 0 a0.35 0.35 0 1 0 -0.7 0 Z" />
  <path id="tools" data-z="-20" data-stock="slate" data-cut="knife"
    d="M-25.8 15.6 H-22.2 V17.2 H-23.6 V24.4 H-24.4 V17.2 H-25.8 Z
       M-20.4 15.4 C-19.2 15.4 -18.6 16.2 -18.8 17.2 L-19.4 17 L-19.3 17.8 L-19.6 25 H-20.4 L-20.6 17.8 L-20.9 17 L-21.4 17.2 C-21.6 16.2 -21.2 15.4 -20.4 15.4 Z
       M-16.6 15.8 H-15 V19.8 L-15.3 20.2 V25.4 H-16.3 V20.2 L-16.6 19.8 Z
       M-13.2 16 L-11.4 16.2 L-12 21 L-11.6 25.4 H-12.4 L-12.6 22 L-13.1 25.4 H-13.9 L-13.4 21 Z
       M-26.4 27 H-17.6 L-17.8 29.4 L-26.2 30.2 Z M-17.6 27.4 H-15 V29.2 H-17.6 Z" />

  <!-- middle A (right): the corkboard, the punched cards pinned to it, and three rosettes -->
  <path id="corkboard" data-z="-20" data-stock="cork" data-cut="knife"
    d="M10.2 12.4 H28.4 V31 H10.2 Z" />
  <path id="punched-cards" data-z="-20" data-stock="cream" data-cut="knife"
    d="M11.6 14.2 L15.4 14 L15.5 16.6 L11.7 16.8 Z M16.4 14.4 H20.2 V17 H16.4 Z M21.2 14.1 L25 14.3 L24.9 16.9 L21.1 16.7 Z M11.8 18.2 H15.6 V20.8 H11.8 Z M16.6 18.4 L20.4 18.2 L20.5 20.8 L16.7 21 Z M21.4 18.3 H25.2 V20.9 H21.4 Z"
    data-holes="M13.3 14.8 a0.3 0.3 0 1 0 0.6 0 a0.3 0.3 0 1 0 -0.6 0 Z M18 15 a0.3 0.3 0 1 0 0.6 0 a0.3 0.3 0 1 0 -0.6 0 Z M22.8 14.9 a0.3 0.3 0 1 0 0.6 0 a0.3 0.3 0 1 0 -0.6 0 Z M13.4 18.8 a0.3 0.3 0 1 0 0.6 0 a0.3 0.3 0 1 0 -0.6 0 Z M18.3 18.9 a0.3 0.3 0 1 0 0.6 0 a0.3 0.3 0 1 0 -0.6 0 Z M23 18.9 a0.3 0.3 0 1 0 0.6 0 a0.3 0.3 0 1 0 -0.6 0 Z" />
  <path id="rosettes" data-z="-19.6" data-stock="sunflower" data-cut="knife"
    d="M13.6 23.2 a1.5 1.5 0 1 0 0.001 0 Z M13 26 L12.4 29.2 L13.2 28.8 L13.7 29.4 L13.9 26.2 Z
       M19.2 23 a1.5 1.5 0 1 0 0.001 0 Z M18.6 25.8 L18 29 L18.8 28.6 L19.3 29.2 L19.5 26 Z
       M24.8 23.3 a1.5 1.5 0 1 0 0.001 0 Z M24.2 26.1 L23.6 29.3 L24.4 28.9 L24.9 29.5 L25.1 26.3 Z"
    data-holes="M13.6 24.2 a0.5 0.5 0 1 0 0.001 0 Z M19.2 24 a0.5 0.5 0 1 0 0.001 0 Z M24.8 24.3 a0.5 0.5 0 1 0 0.001 0 Z" />

  <!-- stage: a workbench under the pegboard, a stool by the cork -->
  <path id="workbench" data-z="-14" data-stock="wood" data-cut="knife"
    d="M-28.4 33.6 H-9.4 V34.8 H-28.4 Z M-27.6 34.8 H-26.4 V40 H-27.6 Z M-11.4 34.8 H-10.2 V40 H-11.4 Z M-26.4 38 H-11.4 V38.6 H-26.4 Z" />
  <path id="stool" data-z="-14" data-stock="teal" data-cut="knife"
    d="M13 33.4 H18.6 V34.4 H13 Z M13.5 34.4 H14.4 L13.9 40 H12.9 Z M17.2 34.4 H18.1 L18.7 40 H17.7 Z" />

  <!-- hung: a paper lantern -->
  <path id="lantern" data-z="-34" data-stock="tomato" data-hang="3.6 11.6" data-cut="knife"
    d="M 3.2 11.6 H 4 V 12.4 H 4.8 V 13 C 5.8 13.6 6 15 5.8 15.8 C 5.6 16.6 5 16.8 4.8 16.8 V 17.4 H 2.4 V 16.8 C 2.2 16.8 1.6 16.6 1.4 15.8 C 1.2 15 1.4 13.6 2.4 13 V 12.4 H 3.2 Z"
    data-holes="M 2.3 14.6 H 4.9 V 15 H 2.3 Z" />

  <!-- detail: a broom against the right wing; a tiny framed portrait of the worker behind the left -->
  <path id="broom" data-z="-6" data-stock="mustard" data-cut="knife"
    d="M26 28 L26.6 27.9 L27.4 37 L26.8 37.1 Z M25.2 37 L28.6 36.6 L29.2 40 L25 40.2 Z" />
  <path id="portrait" data-z="-6" data-stock="wood" data-cut="knife"
    d="M-31.2 24.4 H-27.6 V28.8 H-31.2 Z"
    data-holes="M-30.6 25 H-28.2 V28.2 H-30.6 Z" />
  <path id="portrait-sitter" data-z="-6.3" data-stock="accent"
    d="M-30.4 26.6 C-30.4 25.6 -28.4 25.6 -28.4 26.6 Z M-29.9 28.4 V27.2 H-28.9 V28.4 Z" />
</svg>
